<svg width="24" height="24" viewBox="0 0 24 24" fill="none" xmlns="http://www.w3.org/2000/svg">
<path fill-rule="evenodd" clip-rule="evenodd" d="M3 3V17H14.1935V16H4V4H17.5V5.06H18.5V3H3ZM18.5 8C18.5 8.26522 18.3946 8.51957 18.2071 8.70711C18.0196 8.89464 17.7652 9 17.5 9C17.2348 9 16.9804 8.89464 16.7929 8.70711C16.6054 8.51957 16.5 8.26522 16.5 8C16.5 7.73478 16.6054 7.48043 16.7929 7.29289C16.9804 7.10536 17.2348 7 17.5 7C17.7652 7 18.0196 7.10536 18.2071 7.29289C18.3946 7.48043 18.5 7.73478 18.5 8ZM19.5 8C19.5 8.53043 19.2893 9.03914 18.9142 9.41421C18.5391 9.78929 18.0304 10 17.5 10C16.9696 10 16.4609 9.78929 16.0858 9.41421C15.7107 9.03914 15.5 8.53043 15.5 8C15.5 7.46957 15.7107 6.96086 16.0858 6.58579C16.4609 6.21071 16.9696 6 17.5 6C18.0304 6 18.5391 6.21071 18.9142 6.58579C19.2893 6.96086 19.5 7.46957 19.5 8Z" fill="black"/>
<path fill-rule="evenodd" clip-rule="evenodd" d="M15.0465 10.915C15.3253 10.6488 15.696 10.5002 16.0815 10.5H18.1225C18.8545 10.5 19.536 10.749 20.061 11.245C20.566 11.722 20.829 12.3335 20.9365 12.913C21.1055 13.824 20.9305 14.8195 20.5 15.702V19.75C20.5 20.0637 20.3821 20.3659 20.1696 20.5967C19.9571 20.8275 19.6657 20.9699 19.3531 20.9958C19.0405 21.0217 18.7295 20.9291 18.482 20.7363C18.2345 20.5436 18.0685 20.2649 18.017 19.9555L17.75 18.3535L17.483 19.9555C17.4314 20.2649 17.2654 20.5436 17.0179 20.7363C16.7704 20.9291 16.4595 21.0217 16.1469 20.9958C15.8343 20.9699 15.5428 20.8275 15.3303 20.5967C15.1179 20.3659 15 20.0637 15 19.75V15.0465C14.7719 15.1782 14.5133 15.2475 14.25 15.2475H11.699C11.3011 15.2475 10.9196 15.0895 10.6383 14.8082C10.357 14.5269 10.199 14.1453 10.199 13.7475C10.199 13.3497 10.357 12.9681 10.6383 12.6868C10.9196 12.4055 11.3011 12.2475 11.699 12.2475H13.649L15.0465 10.915ZM16 16.7375V19.75C16.0001 19.8126 16.0238 19.8729 16.0663 19.9189C16.1088 19.9649 16.167 19.9933 16.2294 19.9985C16.2918 20.0036 16.3539 19.9852 16.4033 19.9467C16.4528 19.9083 16.486 19.8527 16.4965 19.791L17.018 16.663C17.0374 16.5462 17.0976 16.4402 17.1879 16.3636C17.2781 16.2871 17.3926 16.2451 17.511 16.245H17.989C18.1073 16.2451 18.2218 16.2871 18.3121 16.3636C18.4024 16.4402 18.4626 16.5462 18.482 16.663L19.0035 19.791C19.0139 19.8527 19.0472 19.9083 19.0966 19.9467C19.1461 19.9852 19.2081 20.0036 19.2705 19.9985C19.333 19.9933 19.3912 19.9649 19.4337 19.9189C19.4761 19.8729 19.4998 19.8126 19.5 19.75V15.5835C19.5 15.5035 19.5192 15.4246 19.556 15.3535C19.942 14.608 20.0825 13.7915 19.9535 13.0955C19.875 12.6725 19.6915 12.2715 19.3745 11.972C19.051 11.6665 18.622 11.5 18.1225 11.5H16.082C15.9535 11.5 15.8295 11.5495 15.7365 11.638L14.1945 13.109C14.1015 13.1978 13.978 13.2474 13.8495 13.2475H11.699C11.5664 13.2475 11.4392 13.3002 11.3454 13.3939C11.2517 13.4877 11.199 13.6149 11.199 13.7475C11.199 13.8801 11.2517 14.0073 11.3454 14.1011C11.4392 14.1948 11.5664 14.2475 11.699 14.2475H14.25C14.3785 14.2474 14.502 14.1978 14.595 14.109L15.155 13.575C15.2258 13.5075 15.3149 13.4622 15.4113 13.4448C15.5076 13.4275 15.6069 13.4388 15.6969 13.4773C15.7868 13.5158 15.8635 13.58 15.9174 13.6617C15.9713 13.7434 16 13.8391 16 13.937V16.7375Z" fill="black"/>
</svg>
